<svg version="1.1" id="Layer_1" xmlns="http://www.w3.org/2000/svg" xmlns:xlink="http://www.w3.org/1999/xlink" x="0px" y="0px"
	 width="100%" viewBox="0 0 552 335" enable-background="new 0 0 552 335" xml:space="preserve">
<path fill="#FF0000" opacity="1.000000" stroke="none" 
	d="
M355.000000,336.000000 
	C236.699860,336.000000 118.899704,336.000000 1.049778,336.000000 
	C1.049778,224.397980 1.049778,112.795944 1.049778,1.096952 
	C184.883499,1.096952 368.767059,1.096952 552.825317,1.096952 
	C552.825317,112.666443 552.825317,224.333206 552.825317,336.000000 
	C487.129242,336.000000 421.314606,336.000000 355.000000,336.000000 
M164.500000,2.998444 
	C110.745575,2.998444 56.991158,2.998444 3.305504,2.998444 
	C3.305504,113.659119 3.305504,223.715500 3.305504,333.699524 
	C185.995651,333.699524 368.378540,333.699524 550.694214,333.699524 
	C550.694214,223.340851 550.694214,113.284515 550.694214,2.998538 
	C422.091370,2.998538 293.795685,2.998538 164.500000,2.998444 
z"/>
<path fill="#FBFCFE" opacity="1.000000" stroke="none" 
	d="
M165.000000,2.998491 
	C293.795685,2.998538 422.091370,2.998538 550.694214,2.998538 
	C550.694214,113.284515 550.694214,223.340851 550.694214,333.699524 
	C368.378540,333.699524 185.995651,333.699524 3.305504,333.699524 
	C3.305504,223.715500 3.305504,113.659119 3.305504,2.998444 
	C56.991158,2.998444 110.745575,2.998444 165.000000,2.998491 
M150.824203,291.586212 
	C150.283798,292.399170 149.743393,293.212158 148.969650,294.827026 
	C148.137650,297.498718 147.305649,300.170380 146.249817,302.405029 
	C146.249817,302.405029 146.006760,301.978394 146.015579,301.157318 
	C144.579178,294.561035 143.142761,287.964722 141.706360,281.368439 
	C141.090698,281.528351 140.475021,281.688263 139.859344,281.848175 
	C141.930756,290.727600 144.002167,299.607056 146.073578,308.486481 
	C146.668777,308.453827 147.263977,308.421204 147.859177,308.388550 
	C148.795990,303.612305 149.732819,298.836029 150.809937,293.421906 
	C150.878021,292.614105 150.946121,291.806305 150.952621,290.838074 
	C150.952621,290.838074 151.228455,290.898834 151.228455,290.898834 
	C151.228455,290.898834 151.005768,290.954010 150.824203,291.586212 
M160.739273,302.865234 
	C162.300583,295.854034 163.861893,288.842834 165.423218,281.831604 
	C164.784103,281.703217 164.144989,281.574799 163.505875,281.446381 
	C162.082260,288.311218 160.658630,295.176056 158.764618,302.464630 
	C157.926712,300.585968 157.088791,298.707306 156.250885,296.828674 
	C155.838623,296.981628 155.426376,297.134613 155.014130,297.287567 
	C155.927078,301.055176 156.840042,304.822784 157.752991,308.590363 
	C158.264862,308.572998 158.776733,308.555634 159.288605,308.538269 
	C159.636932,306.875641 159.985260,305.212982 160.739273,302.865234 
M109.431938,294.667297 
	C109.425163,294.002380 109.418396,293.337494 109.411629,292.672577 
	C108.929840,293.367828 108.448051,294.063110 107.501244,295.356049 
	C106.327400,299.482361 105.153557,303.608673 103.979713,307.734985 
	C107.317131,305.741394 105.944946,300.587219 111.996635,300.364288 
	C118.673103,300.118347 116.119537,306.689911 120.570663,309.097412 
	C118.968964,303.396881 117.684845,298.826630 116.400734,294.256378 
	C115.956894,294.353241 115.513062,294.450073 115.069229,294.546906 
	C115.069229,295.853088 115.069229,297.159271 115.069229,298.435944 
	C109.209518,298.839722 109.209518,298.839722 109.431938,294.667297 
M179.032074,294.760559 
	C179.202484,295.759064 179.372894,296.757568 179.088882,298.088959 
	C178.978149,298.240570 178.867401,298.392181 177.900070,298.649902 
	C176.354782,298.573608 174.809494,298.497345 172.769363,298.396606 
	C173.245270,295.969421 173.635284,293.980408 174.451721,291.596466 
	C174.320602,290.971222 174.189499,290.345947 174.058365,289.720703 
	C173.402222,290.543701 172.746078,291.366730 172.028976,292.951782 
	C170.736176,298.022797 169.443375,303.093811 168.150574,308.164825 
	C168.547791,308.329437 168.945023,308.494080 169.342239,308.658691 
	C171.692123,306.026886 169.820328,300.439484 176.358032,300.419556 
	C182.884003,300.399658 180.071777,306.857513 184.767410,309.072662 
	C182.982681,303.245300 181.512863,298.446167 179.945435,293.120239 
	C179.489960,292.919434 179.034470,292.718628 178.578979,292.517822 
	C178.718216,293.011505 178.857452,293.505188 179.032074,294.760559 
M420.677582,286.362000 
	C419.459778,289.184845 418.242004,292.007690 416.367584,295.136108 
	C415.550903,297.128296 414.734253,299.120514 413.689240,301.669708 
	C417.533295,301.892090 420.264069,302.050079 422.881805,302.201538 
	C423.196136,304.583191 423.448029,306.491974 423.699951,308.400726 
	C424.096191,308.354675 424.492432,308.308624 424.888672,308.262543 
	C425.068451,306.334686 425.248260,304.406830 425.416718,302.600433 
	C426.779144,302.027954 427.947296,301.537109 430.008972,300.670837 
	C427.672638,300.024323 426.479279,299.694061 424.793427,299.227539 
	C424.793427,293.202728 424.793427,287.364380 424.793427,281.526062 
	C424.269318,281.370300 423.745209,281.214539 423.221069,281.058807 
	C422.521301,282.628937 421.821533,284.199097 420.677582,286.362000 
M206.883377,305.038361 
	C206.883377,305.038361 206.876770,304.755096 206.876770,304.755096 
	C206.876770,304.755096 207.001205,304.962738 207.629364,305.306915 
	C210.282684,306.397583 212.954041,308.321411 215.582489,308.264435 
	C217.143616,308.230621 219.343353,305.305237 220.000824,303.273743 
	C221.072754,299.961609 219.419510,297.132477 216.297638,295.394501 
	C214.277832,294.270111 211.717880,293.623596 210.345123,291.975586 
	C209.112396,290.495667 208.453827,287.764465 208.907837,285.921814 
	C209.215027,284.674988 212.069885,283.065430 213.456573,283.331421 
	C215.106918,283.648010 216.578186,285.663788 217.785797,287.209869 
	C218.419632,288.021393 218.324539,289.402222 218.558624,290.525970 
	C219.014221,290.382843 219.469818,290.239716 219.925415,290.096619 
	C220.339111,286.605164 219.960968,283.268951 215.871902,281.647522 
	C212.150314,280.171844 208.841553,281.223846 206.982132,284.827026 
	C205.210129,288.260803 205.464584,291.659393 209.066940,293.998688 
	C210.729080,295.078033 212.522659,295.984955 214.333725,296.798431 
	C217.594467,298.262970 219.267334,301.058380 217.652176,303.955627 
	C216.688141,305.684875 213.476227,306.530884 211.125565,306.963928 
	C209.917526,307.186493 208.382431,305.633850 206.883377,305.038361 
M344.636383,33.722843 
	C328.600983,34.923843 317.021301,43.611782 307.974091,56.092571 
	C300.633362,66.219269 297.944061,77.446991 302.405304,89.594261 
	C303.690399,93.093407 301.451477,94.467003 299.503326,96.194237 
	C279.431885,113.989639 259.321655,131.741333 239.276749,149.566513 
	C232.932770,155.207962 226.439743,160.735031 220.591721,166.864731 
	C215.572647,172.125549 216.967773,178.886597 223.392654,184.786026 
	C229.624878,190.508560 235.748184,190.854233 241.055908,185.611679 
	C243.659882,183.039688 246.052307,180.249802 248.488922,177.512650 
	C269.426422,153.992661 290.386993,130.492966 311.230682,106.890038 
	C313.459259,104.366440 315.421265,104.076851 318.596741,104.920715 
	C322.540802,105.968834 326.778778,106.426476 330.868805,106.321449 
	C349.570770,105.841255 370.034973,85.696953 373.025269,65.990562 
	C375.953796,46.691090 364.718262,33.470337 344.636383,33.722843 
M222.243530,53.255783 
	C220.126038,51.135216 218.012039,49.011158 215.890137,46.895027 
	C213.568085,44.579281 211.023911,42.049797 207.902557,45.324417 
	C205.062592,48.303848 207.333954,50.763943 209.565399,52.976471 
	C217.486038,60.830048 225.365982,68.724991 233.327133,76.537224 
	C235.847290,79.010262 237.557632,81.610718 234.557114,84.639420 
	C231.364365,87.862106 228.931839,85.468277 226.578278,83.100281 
	C218.480820,74.953186 210.464096,66.717697 202.104431,58.847477 
	C200.737244,57.560314 197.323013,56.980553 195.683594,57.777855 
	C192.913986,59.124802 193.593735,62.026470 195.381195,64.179855 
	C205.370560,76.214088 215.093277,88.493629 225.567520,100.092987 
	C232.551987,107.827682 241.330429,108.882576 250.532944,104.161781 
	C253.635590,102.570145 255.288452,103.281197 257.259399,105.647110 
	C260.215485,109.195572 263.422882,112.534698 266.771790,116.237480 
	C271.179535,112.257874 275.335785,108.505287 279.755707,104.514679 
	C275.711151,100.925690 272.061005,97.536903 268.238800,94.354752 
	C266.161163,92.625031 265.555878,91.105354 266.750793,88.388023 
	C271.697876,77.137718 270.143005,68.710533 260.926147,60.652897 
	C249.904327,51.017315 238.415619,41.915306 227.111420,32.603714 
	C224.956161,30.828381 222.633286,30.150604 220.496323,32.558220 
	C218.137924,35.215328 219.519531,37.394554 221.594391,39.466377 
	C229.840912,47.700840 238.061234,55.961597 246.284851,64.218971 
	C248.560226,66.503662 250.381271,68.965508 247.345596,71.885971 
	C244.411499,74.708725 241.976929,73.107864 239.653717,70.749306 
	C234.046005,65.056229 228.383575,59.417057 222.243530,53.255783 
M307.425201,129.103851 
	C306.171417,128.068069 304.917603,127.032288 303.484985,125.848793 
	C298.707611,131.264130 294.138458,136.443420 289.391632,141.824112 
	C302.683533,156.700897 315.578979,171.231461 328.606995,185.642136 
	C331.607727,188.961349 335.647858,190.236099 339.975342,188.737396 
	C345.998505,186.651428 350.239197,182.409973 351.797363,176.222122 
	C353.191376,170.686127 349.897949,166.804413 345.978607,163.344986 
	C333.267822,152.125717 320.615936,140.839706 307.425201,129.103851 
M79.682648,255.185944 
	C87.458633,255.185944 95.234619,255.185944 103.195374,255.185944 
	C103.195374,247.539612 103.195374,240.430786 103.195374,232.824097 
	C95.214653,232.824097 87.430183,232.714142 79.658142,232.974655 
	C78.768669,233.004471 77.948654,235.106445 76.393700,237.188629 
	C81.528709,237.188629 84.851471,237.188614 88.174232,237.188614 
	C91.616310,237.188614 95.058388,237.188629 98.534729,237.188629 
	C98.534729,242.029373 98.534729,246.243393 98.534729,250.743286 
	C91.554314,250.743286 84.894821,251.126389 78.297821,250.647903 
	C69.732231,250.026672 63.802906,243.388092 63.667274,235.154388 
	C63.532726,226.986557 69.348457,220.150589 77.973907,219.421936 
	C84.720833,218.851974 91.554398,219.307709 98.608978,219.307709 
	C98.608978,220.845474 98.608978,222.080460 98.608978,223.845001 
	C91.847923,223.845001 85.214684,223.640411 78.600113,223.904007 
	C72.306625,224.154800 67.981499,228.880295 67.986458,234.889069 
	C67.991623,241.134430 72.561447,245.973557 78.857262,246.152954 
	C83.821198,246.294388 88.792381,246.181351 93.982185,246.181351 
	C93.982185,244.602051 93.982185,243.358521 93.982185,241.799927 
	C88.923149,241.799927 84.110542,241.921555 79.307503,241.759583 
	C75.771713,241.640335 72.794083,239.773682 72.817131,236.188385 
	C72.832436,233.806686 74.439400,231.012161 76.176704,229.218918 
	C77.266808,228.093735 79.915283,228.258438 81.870125,228.230347 
	C88.944923,228.128708 96.022064,228.190338 103.039200,228.190338 
	C103.039200,223.233856 103.039200,218.997040 103.039200,214.504501 
	C94.704620,214.504501 86.716217,214.202332 78.759613,214.576355 
	C67.236298,215.118027 59.000221,223.833511 59.011673,234.873947 
	C59.023235,246.019424 67.041290,254.270508 79.682648,255.185944 
M299.044952,219.562012 
	C300.698364,219.562012 302.351807,219.562012 305.135132,219.562012 
	C296.906647,227.287292 289.552429,234.191788 282.205322,241.089584 
	C295.155243,254.912109 303.160583,258.021088 316.281403,254.358383 
	C311.038879,249.560562 305.848328,244.901871 300.769073,240.124908 
	C298.067291,237.583908 296.989624,239.243912 295.725830,241.566162 
	C298.787109,244.465500 301.628143,247.156265 304.801910,250.162155 
	C298.679352,251.136475 295.800751,249.336807 289.144104,240.888779 
	C298.096283,232.404434 307.066437,223.903061 317.051971,214.439362 
	C310.340424,214.439362 304.757416,213.356400 299.883331,214.751007 
	C295.225311,216.083786 291.304993,219.994629 286.859802,222.903534 
	C286.707886,220.156418 286.557861,217.444077 286.413147,214.827240 
	C281.614685,214.827240 277.399170,214.827240 273.257874,214.827240 
	C273.257874,228.457748 273.257874,241.692947 273.257874,254.966278 
	C278.824829,254.966278 284.101166,254.966278 289.377502,254.966278 
	C289.519531,254.426193 289.661560,253.886093 289.803558,253.346008 
	C285.990967,252.153931 282.178345,250.961868 277.628784,249.539383 
	C277.628784,240.780441 277.534790,231.165207 277.778961,221.558563 
	C277.802551,220.630966 279.923920,219.756683 281.071503,218.857651 
	C281.446655,219.209259 281.821808,219.560867 282.196960,219.912491 
	C282.196960,224.787888 282.196960,229.663284 282.196960,235.313095 
	C288.017792,229.793640 293.183685,224.895233 299.044952,219.562012 
M206.577759,227.293121 
	C205.325363,231.444611 202.379578,232.923691 198.232697,232.840820 
	C192.740021,232.731049 187.243530,232.813675 181.748672,232.813644 
	C176.835861,232.813614 171.923050,232.813629 167.164856,232.813629 
	C167.164856,240.686096 167.164856,247.775391 167.164856,254.996216 
	C171.574905,254.996216 175.686264,254.996216 179.996017,254.996216 
	C180.180710,252.075714 180.354660,249.325180 180.521973,246.679520 
	C186.979553,245.129517 191.969986,245.885559 194.334320,252.751862 
	C194.679611,253.754623 196.115631,255.001785 197.106140,255.056107 
	C201.614136,255.303314 206.143295,255.164459 210.664841,255.164459 
	C206.415009,250.753387 207.747116,241.785980 198.519592,241.821152 
	C200.214493,245.112198 201.556763,247.718552 202.899048,250.324890 
	C202.520859,250.747421 202.142685,251.169937 201.764496,251.592453 
	C199.986771,250.237595 198.070358,249.027237 196.468109,247.489532 
	C194.662842,245.756958 193.348862,242.384766 191.454712,242.091309 
	C186.471115,241.319214 181.288712,241.830322 175.836731,241.830322 
	C175.836731,245.012207 175.836731,247.616531 175.836731,250.167450 
	C170.871277,250.809723 169.808426,247.022293 172.054398,237.135269 
	C181.402405,237.135269 190.868683,237.267380 200.329041,237.087585 
	C206.367416,236.972794 210.792755,232.533066 211.127777,226.816574 
	C211.494064,220.566544 207.806686,215.173065 201.626266,214.898239 
	C190.200851,214.390137 178.736710,214.752914 167.106049,214.752914 
	C167.106049,219.230057 167.106049,223.478119 167.106049,228.184418 
	C169.622375,228.184418 171.908218,228.184387 174.194061,228.184418 
	C182.186569,228.184540 190.181442,228.281509 198.169159,228.085861 
	C199.444000,228.054642 200.686707,226.710922 201.944275,225.973984 
	C200.831696,225.257095 199.801514,224.259338 198.583450,223.902008 
	C197.356262,223.541977 195.942398,223.816116 194.610336,223.815994 
	C186.993744,223.815292 179.377151,223.815643 171.943924,223.815643 
	C170.512634,220.118927 171.763824,219.105591 174.910522,219.149734 
	C182.734985,219.259537 190.562103,219.164093 198.387970,219.196045 
	C203.216125,219.215744 206.343674,221.272552 206.577759,227.293121 
M368.712860,233.194397 
	C374.019775,224.864563 370.508209,215.403015 361.258209,214.841553 
	C350.011932,214.158920 338.692596,214.679398 327.326172,214.679398 
	C327.326172,219.318146 327.326172,223.687439 327.326172,228.179108 
	C338.025208,228.179108 348.349091,228.244171 358.669556,228.086014 
	C359.794373,228.068756 360.899445,226.764297 362.013672,226.056900 
	C360.937256,225.312637 359.951691,224.272888 358.759216,223.906372 
	C357.541077,223.531982 356.119904,223.816025 354.787598,223.815887 
	C347.166656,223.815094 339.545715,223.815491 331.924774,223.815491 
	C331.607574,223.250229 331.290405,222.684967 330.973236,222.119690 
	C332.174500,221.142273 333.350922,219.356171 334.581085,219.318314 
	C342.733643,219.067535 350.904266,219.014725 359.053589,219.315201 
	C361.155914,219.392715 363.850128,220.445862 365.090912,221.996353 
	C366.294983,223.500916 367.018463,226.978104 366.099976,228.235855 
	C364.570587,230.330231 361.612823,232.503723 359.166565,232.612106 
	C348.583099,233.080933 337.967041,232.812912 327.278351,232.812912 
	C327.278351,240.537750 327.278351,247.755417 327.278351,254.964142 
	C331.727051,254.964142 335.843048,254.964142 340.134918,254.964142 
	C340.348267,252.023438 340.546967,249.284851 340.734924,246.694366 
	C347.043823,245.163239 351.878906,245.777420 354.275330,252.434128 
	C354.704193,253.625519 356.578186,254.953369 357.875793,255.054733 
	C362.113403,255.385757 366.393066,255.178833 370.837524,255.178833 
	C366.082031,243.464111 364.095367,241.360840 358.946930,242.595016 
	C360.339355,245.194351 361.707733,247.748795 363.076111,250.303238 
	C362.609283,250.754837 362.142456,251.206436 361.675598,251.658035 
	C359.927582,250.218597 358.052887,248.904816 356.466309,247.305252 
	C354.800964,245.626312 353.595154,242.328430 351.867493,242.092850 
	C346.710419,241.389725 341.396057,241.840363 335.839783,241.840363 
	C335.839783,245.145676 335.839783,247.757187 335.839783,250.340042 
	C331.086884,250.627228 329.865662,245.779022 332.387482,237.182510 
	C341.079895,237.182510 349.897736,237.483444 358.675873,237.024918 
	C361.899139,236.856552 365.028534,234.891418 368.712860,233.194397 
M445.059235,217.410294 
	C443.119202,216.520798 441.194702,214.903595 439.236542,214.861679 
	C427.810669,214.617096 416.376953,214.741806 404.669189,214.741806 
	C404.669189,219.246201 404.669189,223.480072 404.669189,228.201599 
	C414.959381,228.201599 425.078979,228.286392 435.193970,228.107864 
	C436.667908,228.081848 438.119659,226.798447 439.581696,226.096878 
	C438.016418,225.330841 436.467224,223.943573 434.883118,223.902496 
	C426.408051,223.682693 417.924286,223.798782 409.070923,223.798782 
	C409.169800,222.123611 409.250458,220.756714 409.341370,219.216522 
	C418.719208,219.216522 427.704315,219.087280 436.683105,219.268814 
	C441.463257,219.365479 444.192413,222.197830 444.109375,226.249405 
	C444.029572,230.145157 441.044067,232.703247 436.277588,232.779907 
	C431.451233,232.857513 426.622620,232.797150 421.795013,232.797180 
	C416.058136,232.797211 410.321228,232.797195 404.699738,232.797195 
	C404.699738,240.677094 404.699738,247.756012 404.699738,254.942932 
	C409.264465,254.942932 413.511993,254.942932 417.891602,254.942932 
	C417.891602,250.558884 417.891602,246.434311 417.891602,241.899536 
	C416.375977,241.975296 415.014526,242.043335 413.705902,242.108734 
	C413.155426,250.778015 413.155426,250.778015 409.377167,250.079758 
	C409.377167,245.836044 409.377167,241.618500 409.377167,237.475327 
	C410.054474,237.352737 410.380524,237.242920 410.706879,237.242111 
	C419.030182,237.221420 427.356567,237.070663 435.675720,237.251892 
	C440.992828,237.367722 445.264587,235.752640 447.669983,230.888733 
	C449.979523,226.218613 448.890015,221.835678 445.059235,217.410294 
M236.355331,249.829498 
	C223.494797,245.195923 222.713699,235.584366 225.171204,218.797607 
	C226.454529,219.674973 227.850647,220.820374 227.954025,222.072510 
	C228.295807,226.211975 227.842911,230.426178 228.297562,234.545181 
	C229.093704,241.757889 234.834869,246.754517 241.372665,246.430496 
	C248.479507,246.078278 253.892563,240.852921 254.236160,233.631729 
	C254.489304,228.311371 254.237823,222.968811 254.384903,217.640945 
	C254.488434,213.890564 252.662964,214.062302 249.953629,215.018066 
	C249.953629,220.735092 249.998047,226.226822 249.941788,231.717514 
	C249.878799,237.864578 246.505081,241.820953 241.347672,241.931030 
	C236.165558,242.041641 232.801453,238.224670 232.698914,231.902603 
	C232.607788,226.283981 232.679794,220.662689 232.679794,214.788620 
	C227.927124,214.788620 223.708252,214.788620 219.237823,214.788620 
	C219.237823,221.619888 218.849243,228.127945 219.320724,234.573090 
	C220.232483,247.036819 229.763168,255.465042 241.947388,255.130051 
	C253.913498,254.801086 262.917664,245.549088 263.225281,233.137970 
	C263.353210,227.975830 263.148804,222.805069 263.295135,217.643890 
	C263.401184,213.901596 261.585602,214.049698 258.757812,215.046600 
	C258.757812,221.010223 258.957733,226.835022 258.716400,232.641495 
	C258.206207,244.918335 249.092651,252.173798 236.355331,249.829498 
M157.091019,218.832367 
	C157.337860,215.474533 156.879669,213.034668 152.392044,215.378067 
	C152.392044,221.604446 152.719620,227.778839 152.317490,233.905350 
	C151.667252,243.811676 143.834686,251.028839 134.689789,250.685562 
	C125.184265,250.328735 118.148560,243.081604 117.781006,233.142075 
	C117.645706,229.483124 117.847115,225.811905 117.718559,222.152481 
	C117.588463,218.448883 119.363815,218.574677 122.021004,219.635056 
	C122.021004,224.515472 121.817322,229.187103 122.067848,233.834244 
	C122.462349,241.152222 128.212631,246.598801 134.977203,246.407150 
	C142.247330,246.201157 147.851700,240.726517 148.086365,233.360367 
	C148.250656,228.202820 148.036743,223.033646 148.178314,217.874786 
	C148.270248,214.523224 147.034821,213.679825 144.117798,215.023941 
	C144.011017,215.497757 143.876221,215.820267 143.874802,216.143372 
	C143.852661,221.139297 143.877670,226.135574 143.831650,231.131226 
	C143.770859,237.731964 140.555496,241.754196 135.267670,241.929901 
	C129.816010,242.111053 126.441818,238.037384 126.361900,231.037140 
	C126.299828,225.600449 126.349503,220.162476 126.349503,214.755112 
	C121.554420,214.755112 117.455475,214.755112 113.142700,214.755112 
	C113.142700,221.868179 112.659470,228.717453 113.248985,235.473114 
	C114.293930,247.447968 124.156738,255.595932 136.158661,255.094116 
	C147.876556,254.604187 156.845490,245.269943 157.070526,233.252945 
	C157.154694,228.757996 157.088547,224.260239 157.091019,218.832367 
M482.811798,227.254410 
	C478.883301,234.004211 475.096619,240.843536 470.929901,247.442917 
	C469.843658,249.163361 467.573120,250.136063 465.846527,251.452194 
	C465.403656,250.971130 464.960754,250.490067 464.517853,250.009003 
	C471.134430,238.425613 477.751007,226.842224 484.367584,215.258850 
	C483.930695,214.758530 483.493805,214.258209 483.056915,213.757904 
	C481.356720,214.957062 479.036804,215.783676 478.055939,217.415268 
	C471.208649,228.805405 464.627533,240.355865 458.001160,251.877991 
	C457.492218,252.762924 457.290100,253.824341 456.807800,255.194580 
	C460.516418,255.194580 463.701935,254.909653 466.813812,255.266769 
	C470.694611,255.712143 472.789185,254.218643 474.593292,250.803497 
	C478.534515,243.342941 482.959473,236.137909 487.439972,228.390701 
	C491.828735,236.041351 495.920898,243.174911 500.582855,251.301773 
	C491.555817,250.179749 492.060150,241.712433 487.030792,237.727493 
	C482.857361,244.463425 488.821106,248.697052 491.548492,252.693680 
	C495.415863,258.360779 501.903870,253.998215 508.268097,255.368469 
	C500.961334,242.714066 494.348816,231.262009 487.513519,219.424057 
	C485.885773,222.086685 484.507874,224.340622 482.811798,227.254410 
M394.906860,241.143829 
	C394.906860,232.396103 394.906860,223.648361 394.906860,214.688171 
	C390.068359,214.688171 385.826172,214.688171 381.428406,214.688171 
	C381.428406,228.290359 381.428406,241.607147 381.428406,254.889709 
	C394.661987,256.088074 395.166382,255.930649 394.168976,250.704193 
	C391.604034,250.704193 388.974823,250.704193 385.887634,250.704193 
	C385.887634,240.776184 385.801117,231.167999 386.029663,221.567307 
	C386.051086,220.668091 388.061707,219.816223 390.205139,218.093155 
	C390.205139,228.609619 390.205139,237.188797 390.205139,245.719604 
	C394.683563,246.172577 394.683563,246.172577 394.906860,241.143829 
M278.737549,281.304169 
	C275.734802,280.935638 275.657806,282.845459 275.677917,285.045990 
	C275.738739,291.694519 275.676117,298.344177 275.721649,304.992981 
	C275.729309,306.109344 276.035858,307.223663 276.204285,308.338898 
	C276.672485,308.311188 277.140686,308.283447 277.608887,308.255707 
	C277.608887,304.744171 277.608887,301.232635 277.608887,297.601562 
	C286.922546,296.073517 284.588043,306.878082 291.512146,308.943665 
	C289.115814,304.499878 287.213562,300.972351 285.293396,297.411560 
	C288.678375,294.391083 291.182129,291.205261 289.382568,286.455536 
	C287.626923,281.821716 283.698730,281.387024 278.737549,281.304169 
M339.411041,302.206970 
	C340.074890,300.584595 340.738770,298.962250 341.402618,297.339874 
	C343.136505,298.480011 345.128693,299.373352 346.525879,300.835266 
	C347.731110,302.096375 348.154144,304.070862 349.120911,305.605194 
	C349.843994,306.752686 350.882202,307.701630 351.780121,308.738983 
	C352.129669,308.463348 352.479248,308.187683 352.828827,307.912048 
	C350.951233,304.481842 349.073669,301.051666 347.209473,297.645935 
	C352.126556,292.099792 353.102234,288.679382 350.414978,284.934265 
	C347.174652,280.418365 342.525269,281.170288 338.047119,281.717529 
	C338.047119,290.838684 338.047119,299.570190 338.047119,308.301697 
	C338.501465,308.307159 338.955811,308.312592 339.410156,308.318054 
	C339.410156,306.581116 339.410156,304.844177 339.411041,302.206970 
M256.574432,283.074829 
	C255.983734,289.424988 255.214188,295.765289 254.863037,302.128662 
	C254.614594,306.630829 257.283569,308.772217 261.679779,308.898468 
	C266.152527,309.026917 268.622040,306.773468 268.856964,302.403442 
	C269.080231,298.249634 269.005371,294.074829 268.935974,289.911346 
	C268.801697,281.856201 264.743744,279.339050 256.574432,283.074829 
M367.267578,308.722656 
	C369.056732,308.545776 370.845886,308.368927 372.635040,308.192078 
	C372.618073,307.681061 372.601105,307.170074 372.584137,306.659058 
	C368.920197,306.442444 365.256256,306.225800 361.407166,305.998230 
	C361.407166,302.541382 361.407166,299.310394 361.407166,296.039490 
	C365.107697,295.761444 368.500519,295.506531 371.893372,295.251617 
	C371.858673,294.792908 371.824005,294.334167 371.789307,293.875458 
	C368.369965,293.875458 364.950623,293.875458 361.426483,293.875458 
	C361.426483,290.361389 361.426483,287.311157 361.426483,284.268433 
	C365.279968,284.000397 368.813507,283.754639 372.347015,283.508881 
	C372.313232,282.964172 372.279480,282.419464 372.245728,281.874756 
	C367.987000,281.874756 363.728271,281.874756 359.242310,281.874756 
	C359.242310,290.661865 359.242310,299.392487 359.242310,308.722473 
	C361.799225,308.722473 364.086121,308.722473 367.267578,308.722656 
M240.671875,294.121826 
	C239.906296,290.958221 239.140717,287.794586 238.327255,284.433105 
	C243.044754,284.065704 246.425308,283.802460 249.805862,283.539185 
	C249.777802,282.756470 249.749756,281.973755 249.721695,281.191040 
	C246.591309,281.191040 243.452728,281.331970 240.332947,281.150238 
	C237.388016,280.978699 236.147171,281.947784 236.226929,285.070099 
	C236.400421,291.863190 236.243332,298.664215 236.319458,305.460876 
	C236.331375,306.524811 236.858459,307.582977 237.147339,308.643799 
	C237.633362,308.596252 238.119385,308.548676 238.605408,308.501099 
	C238.823898,304.708038 239.042389,300.914978 239.260071,297.136139 
	C242.969299,296.853638 246.252274,296.603607 249.535248,296.353607 
	C249.535461,295.627075 249.535660,294.900574 249.535858,294.174042 
	C246.886505,294.174042 244.237137,294.174042 240.671875,294.121826 
M406.156250,308.699005 
	C407.408661,308.508057 408.661041,308.317078 409.913452,308.126129 
	C409.889099,307.635498 409.864746,307.144867 409.840363,306.654236 
	C406.658600,306.434570 403.476837,306.214905 398.445343,305.867523 
	C401.158661,302.664520 402.744537,300.040741 405.004669,298.284943 
	C409.361694,294.900085 410.955658,290.582794 409.577454,285.568237 
	C409.096130,283.816956 406.622101,281.902496 404.731720,281.461487 
	C403.045624,281.068054 400.264038,282.074463 399.147400,283.433716 
	C397.955109,284.885132 398.147156,287.473724 397.734924,289.565918 
	C398.262421,289.619110 398.789886,289.672272 399.317383,289.725464 
	C399.501312,288.974945 399.458588,288.024384 399.911530,287.511322 
	C401.279755,285.961395 402.840424,284.581299 404.326080,283.135010 
	C405.517029,284.855804 407.973846,286.891113 407.640381,288.233154 
	C406.902924,291.201324 405.263153,294.333984 403.079590,296.465485 
	C399.575806,299.885742 396.950195,303.210754 398.060974,308.699463 
	C400.670807,308.699463 402.977570,308.699463 406.156250,308.699005 
M320.443787,281.745453 
	C319.933960,282.717926 319.051727,283.665436 318.984467,284.667603 
	C318.787262,287.606262 318.914307,290.566650 318.914307,293.684601 
	C315.384186,293.684601 312.345062,293.684601 308.580200,293.684601 
	C308.580200,289.484436 308.580200,285.586121 308.580200,281.687805 
	C308.282990,281.713379 307.985779,281.738953 307.688568,281.764526 
	C307.688568,290.602783 307.688568,299.441040 307.688568,308.279297 
	C308.140228,308.279816 308.591919,308.280334 309.043579,308.280823 
	C309.043579,304.253448 309.043579,300.226044 309.043579,296.271118 
	C312.623871,296.271118 315.551025,296.271118 318.679260,296.271118 
	C318.865814,300.444061 319.042145,304.388123 319.218475,308.332184 
	C319.785461,308.321198 320.352417,308.310211 320.919403,308.299225 
	C320.919403,299.679535 320.919403,291.059875 320.443787,281.745453 
M461.694946,281.322205 
	C458.225464,281.322205 454.755951,281.322205 451.286469,281.322205 
	C451.250793,282.027161 451.215149,282.732117 451.179474,283.437073 
	C454.400696,283.738800 457.621918,284.040527 461.189148,284.374695 
	C458.323212,292.582336 455.597717,300.387817 452.872192,308.193298 
	C454.483124,308.167816 455.207367,307.704651 455.436432,307.064331 
	C458.060608,299.729248 460.675018,292.388733 463.101257,284.987152 
	C463.430603,283.982513 462.716736,282.635956 461.694946,281.322205 
M197.754501,285.310059 
	C196.703674,287.685242 195.652847,290.060425 194.283203,293.156219 
	C192.122955,288.725555 190.287613,284.961304 188.452286,281.197052 
	C187.938522,281.448547 187.424759,281.700073 186.910995,281.951599 
	C188.777100,286.259552 191.203690,290.424652 192.348358,294.916443 
	C193.447098,299.227966 193.217056,303.878113 193.557007,308.202362 
	C195.866730,299.224365 198.121246,290.460968 200.375748,281.697571 
	C200.259369,281.572815 200.143005,281.448029 200.026627,281.323242 
	C199.343735,282.418762 198.660828,283.514313 197.754501,285.310059 
M125.800781,305.241364 
	C126.616158,309.160950 132.042419,310.195953 137.915817,306.702271 
	C134.094879,306.427612 131.271088,306.224640 127.552109,305.957336 
	C127.552109,297.723450 127.552109,289.669617 127.552109,281.615814 
	C126.967827,281.638336 126.383545,281.660889 125.799263,281.683411 
	C125.799263,289.220215 125.799263,296.756989 125.800781,305.241364 
M330.226044,297.439697 
	C330.226044,292.163239 330.226044,286.886780 330.226044,281.610291 
	C329.669647,281.638916 329.113281,281.667511 328.556885,281.696136 
	C328.556885,290.579010 328.556885,299.461884 328.556885,308.344788 
	C329.113220,308.355103 329.669556,308.365417 330.225891,308.375763 
	C330.225891,305.052032 330.225891,301.728333 330.226044,297.439697 
M435.933838,306.429565 
	C436.037811,307.086182 436.141785,307.742767 436.245758,308.399384 
	C436.600708,308.425598 436.955688,308.451843 437.310638,308.478058 
	C439.877655,299.614563 442.444641,290.751068 445.011658,281.887573 
	C444.431396,281.710846 443.851166,281.534088 443.270905,281.357330 
	C440.865448,289.492371 438.459991,297.627380 435.933838,306.429565 
M177.178925,282.188263 
	C176.149155,282.925903 175.119370,283.663544 174.089600,284.401184 
	C174.624207,285.078247 175.158798,285.755280 175.693375,286.432343 
	C176.317947,285.160828 176.942520,283.889313 177.178925,282.188263 
M113.678024,283.252319 
	C112.729164,282.977570 111.780312,282.702820 110.831451,282.428070 
	C110.959450,283.446930 111.087448,284.465790 111.215446,285.484650 
	C112.014839,284.933472 112.814232,284.382294 113.678024,283.252319 
M177.460297,288.670959 
	C177.717865,288.935944 177.973083,289.203522 178.245865,289.451782 
	C178.253021,289.458313 178.552078,289.168701 178.546005,289.161591 
	C178.308746,288.883881 178.051788,288.623047 177.460297,288.670959 
M113.490639,290.105713 
	C113.822952,290.040466 114.155266,289.975220 114.487564,289.910004 
	C114.155746,289.837067 113.823929,289.764130 113.490639,290.105713 
M110.048454,289.728149 
	C110.081146,290.030945 110.113838,290.333710 110.146530,290.636505 
	C110.242599,290.317474 110.338669,289.998444 110.048454,289.728149 
M109.849068,287.700562 
	C109.926651,287.562744 110.004234,287.424927 110.081810,287.287079 
	C109.957199,287.346527 109.832588,287.405975 109.849068,287.700562 
z"/>
<path fill="#437794" opacity="1.000000" stroke="none" 
	d="
M345.106384,33.705101 
	C364.718262,33.470337 375.953796,46.691090 373.025269,65.990562 
	C370.034973,85.696953 349.570770,105.841255 330.868805,106.321449 
	C326.778778,106.426476 322.540802,105.968834 318.596741,104.920715 
	C315.421265,104.076851 313.459259,104.366440 311.230682,106.890038 
	C290.386993,130.492966 269.426422,153.992661 248.488922,177.512650 
	C246.052307,180.249802 243.659882,183.039688 241.055908,185.611679 
	C235.748184,190.854233 229.624878,190.508560 223.392654,184.786026 
	C216.967773,178.886597 215.572647,172.125549 220.591721,166.864731 
	C226.439743,160.735031 232.932770,155.207962 239.276749,149.566513 
	C259.321655,131.741333 279.431885,113.989639 299.503326,96.194237 
	C301.451477,94.467003 303.690399,93.093407 302.405304,89.594261 
	C297.944061,77.446991 300.633362,66.219269 307.974091,56.092571 
	C317.021301,43.611782 328.600983,34.923843 345.106384,33.705101 
z"/>
<path fill="#447895" opacity="1.000000" stroke="none" 
	d="
M222.493362,53.505966 
	C228.383575,59.417057 234.046005,65.056229 239.653717,70.749306 
	C241.976929,73.107864 244.411499,74.708725 247.345596,71.885971 
	C250.381271,68.965508 248.560226,66.503662 246.284851,64.218971 
	C238.061234,55.961597 229.840912,47.700840 221.594391,39.466377 
	C219.519531,37.394554 218.137924,35.215328 220.496323,32.558220 
	C222.633286,30.150604 224.956161,30.828381 227.111420,32.603714 
	C238.415619,41.915306 249.904327,51.017315 260.926147,60.652897 
	C270.143005,68.710533 271.697876,77.137718 266.750793,88.388023 
	C265.555878,91.105354 266.161163,92.625031 268.238800,94.354752 
	C272.061005,97.536903 275.711151,100.925690 279.755707,104.514679 
	C275.335785,108.505287 271.179535,112.257874 266.771790,116.237480 
	C263.422882,112.534698 260.215485,109.195572 257.259399,105.647110 
	C255.288452,103.281197 253.635590,102.570145 250.532944,104.161781 
	C241.330429,108.882576 232.551987,107.827682 225.567520,100.092987 
	C215.093277,88.493629 205.370560,76.214088 195.381195,64.179855 
	C193.593735,62.026470 192.913986,59.124802 195.683594,57.777855 
	C197.323013,56.980553 200.737244,57.560314 202.104431,58.847477 
	C210.464096,66.717697 218.480820,74.953186 226.578278,83.100281 
	C228.931839,85.468277 231.364365,87.862106 234.557114,84.639420 
	C237.557632,81.610718 235.847290,79.010262 233.327133,76.537224 
	C225.365982,68.724991 217.486038,60.830048 209.565399,52.976471 
	C207.333954,50.763943 205.062592,48.303848 207.902557,45.324417 
	C211.023911,42.049797 213.568085,44.579281 215.890137,46.895027 
	C218.012039,49.011158 220.126038,51.135216 222.493362,53.505966 
z"/>
<path fill="#437894" opacity="1.000000" stroke="none" 
	d="
M307.683289,129.341614 
	C320.615936,140.839706 333.267822,152.125717 345.978607,163.344986 
	C349.897949,166.804413 353.191376,170.686127 351.797363,176.222122 
	C350.239197,182.409973 345.998505,186.651428 339.975342,188.737396 
	C335.647858,190.236099 331.607727,188.961349 328.606995,185.642136 
	C315.578979,171.231461 302.683533,156.700897 289.391632,141.824112 
	C294.138458,136.443420 298.707611,131.264130 303.484985,125.848793 
	C304.917603,127.032288 306.171417,128.068069 307.683289,129.341614 
z"/>
<path fill="#0B4B8F" opacity="1.000000" stroke="none" 
	d="
M79.212433,255.181915 
	C67.041290,254.270508 59.023235,246.019424 59.011673,234.873947 
	C59.000221,223.833511 67.236298,215.118027 78.759613,214.576355 
	C86.716217,214.202332 94.704620,214.504501 103.039200,214.504501 
	C103.039200,218.997040 103.039200,223.233856 103.039200,228.190338 
	C96.022064,228.190338 88.944923,228.128708 81.870125,228.230347 
	C79.915283,228.258438 77.266808,228.093735 76.176704,229.218918 
	C74.439400,231.012161 72.832436,233.806686 72.817131,236.188385 
	C72.794083,239.773682 75.771713,241.640335 79.307503,241.759583 
	C84.110542,241.921555 88.923149,241.799927 93.982185,241.799927 
	C93.982185,243.358521 93.982185,244.602051 93.982185,246.181351 
	C88.792381,246.181351 83.821198,246.294388 78.857262,246.152954 
	C72.561447,245.973557 67.991623,241.134430 67.986458,234.889069 
	C67.981499,228.880295 72.306625,224.154800 78.600113,223.904007 
	C85.214684,223.640411 91.847923,223.845001 98.608978,223.845001 
	C98.608978,222.080460 98.608978,220.845474 98.608978,219.307709 
	C91.554398,219.307709 84.720833,218.851974 77.973907,219.421936 
	C69.348457,220.150589 63.532726,226.986557 63.667274,235.154388 
	C63.802906,243.388092 69.732231,250.026672 78.297821,250.647903 
	C84.894821,251.126389 91.554314,250.743286 98.534729,250.743286 
	C98.534729,246.243393 98.534729,242.029373 98.534729,237.188629 
	C95.058388,237.188629 91.616310,237.188614 88.174232,237.188614 
	C84.851471,237.188614 81.528709,237.188629 76.393700,237.188629 
	C77.948654,235.106445 78.768669,233.004471 79.658142,232.974655 
	C87.430183,232.714142 95.214653,232.824097 103.195374,232.824097 
	C103.195374,240.430786 103.195374,247.539612 103.195374,255.185944 
	C95.234619,255.185944 87.458633,255.185944 79.212433,255.181915 
z"/>
<path fill="#115092" opacity="1.000000" stroke="none" 
	d="
M298.697266,219.779419 
	C293.183685,224.895233 288.017792,229.793640 282.196960,235.313095 
	C282.196960,229.663284 282.196960,224.787888 282.196960,219.912491 
	C281.821808,219.560867 281.446655,219.209259 281.071503,218.857651 
	C279.923920,219.756683 277.802551,220.630966 277.778961,221.558563 
	C277.534790,231.165207 277.628784,240.780441 277.628784,249.539383 
	C282.178345,250.961868 285.990967,252.153931 289.803558,253.346008 
	C289.661560,253.886093 289.519531,254.426193 289.377502,254.966278 
	C284.101166,254.966278 278.824829,254.966278 273.257874,254.966278 
	C273.257874,241.692947 273.257874,228.457748 273.257874,214.827240 
	C277.399170,214.827240 281.614685,214.827240 286.413147,214.827240 
	C286.557861,217.444077 286.707886,220.156418 286.859802,222.903534 
	C291.304993,219.994629 295.225311,216.083786 299.883331,214.751007 
	C304.757416,213.356400 310.340424,214.439362 317.051971,214.439362 
	C307.066437,223.903061 298.096283,232.404434 289.144104,240.888779 
	C295.800751,249.336807 298.679352,251.136475 304.801910,250.162155 
	C301.628143,247.156265 298.787109,244.465500 295.725830,241.566162 
	C296.989624,239.243912 298.067291,237.583908 300.769073,240.124908 
	C305.848328,244.901871 311.038879,249.560562 316.281403,254.358383 
	C303.160583,258.021088 295.155243,254.912109 282.205322,241.089584 
	C289.552429,234.191788 296.906647,227.287292 305.135132,219.562012 
	C302.351807,219.562012 300.698364,219.562012 298.697266,219.779419 
z"/>
<path fill="#094A8F" opacity="1.000000" stroke="none" 
	d="
M206.653748,226.868576 
	C206.343674,221.272552 203.216125,219.215744 198.387970,219.196045 
	C190.562103,219.164093 182.734985,219.259537 174.910522,219.149734 
	C171.763824,219.105591 170.512634,220.118927 171.943924,223.815643 
	C179.377151,223.815643 186.993744,223.815292 194.610336,223.815994 
	C195.942398,223.816116 197.356262,223.541977 198.583450,223.902008 
	C199.801514,224.259338 200.831696,225.257095 201.944275,225.973984 
	C200.686707,226.710922 199.444000,228.054642 198.169159,228.085861 
	C190.181442,228.281509 182.186569,228.184540 174.194061,228.184418 
	C171.908218,228.184387 169.622375,228.184418 167.106049,228.184418 
	C167.106049,223.478119 167.106049,219.230057 167.106049,214.752914 
	C178.736710,214.752914 190.200851,214.390137 201.626266,214.898239 
	C207.806686,215.173065 211.494064,220.566544 211.127777,226.816574 
	C210.792755,232.533066 206.367416,236.972794 200.329041,237.087585 
	C190.868683,237.267380 181.402405,237.135269 172.054398,237.135269 
	C169.808426,247.022293 170.871277,250.809723 175.836731,250.167450 
	C175.836731,247.616531 175.836731,245.012207 175.836731,241.830322 
	C181.288712,241.830322 186.471115,241.319214 191.454712,242.091309 
	C193.348862,242.384766 194.662842,245.756958 196.468109,247.489532 
	C198.070358,249.027237 199.986771,250.237595 201.764496,251.592453 
	C202.142685,251.169937 202.520859,250.747421 202.899048,250.324890 
	C201.556763,247.718552 200.214493,245.112198 198.519592,241.821152 
	C207.747116,241.785980 206.415009,250.753387 210.664841,255.164459 
	C206.143295,255.164459 201.614136,255.303314 197.106140,255.056107 
	C196.115631,255.001785 194.679611,253.754623 194.334320,252.751862 
	C191.969986,245.885559 186.979553,245.129517 180.521973,246.679520 
	C180.354660,249.325180 180.180710,252.075714 179.996017,254.996216 
	C175.686264,254.996216 171.574905,254.996216 167.164856,254.996216 
	C167.164856,247.775391 167.164856,240.686096 167.164856,232.813629 
	C171.923050,232.813629 176.835861,232.813614 181.748672,232.813644 
	C187.243530,232.813675 192.740021,232.731049 198.232697,232.840820 
	C202.379578,232.923691 205.325363,231.444611 206.653748,226.868576 
z"/>
<path fill="#094A8F" opacity="1.000000" stroke="none" 
	d="
M368.456787,233.470123 
	C365.028534,234.891418 361.899139,236.856552 358.675873,237.024918 
	C349.897736,237.483444 341.079895,237.182510 332.387482,237.182510 
	C329.865662,245.779022 331.086884,250.627228 335.839783,250.340042 
	C335.839783,247.757187 335.839783,245.145676 335.839783,241.840363 
	C341.396057,241.840363 346.710419,241.389725 351.867493,242.092850 
	C353.595154,242.328430 354.800964,245.626312 356.466309,247.305252 
	C358.052887,248.904816 359.927582,250.218597 361.675598,251.658035 
	C362.142456,251.206436 362.609283,250.754837 363.076111,250.303238 
	C361.707733,247.748795 360.339355,245.194351 358.946930,242.595016 
	C364.095367,241.360840 366.082031,243.464111 370.837524,255.178833 
	C366.393066,255.178833 362.113403,255.385757 357.875793,255.054733 
	C356.578186,254.953369 354.704193,253.625519 354.275330,252.434128 
	C351.878906,245.777420 347.043823,245.163239 340.734924,246.694366 
	C340.546967,249.284851 340.348267,252.023438 340.134918,254.964142 
	C335.843048,254.964142 331.727051,254.964142 327.278351,254.964142 
	C327.278351,247.755417 327.278351,240.537750 327.278351,232.812912 
	C337.967041,232.812912 348.583099,233.080933 359.166565,232.612106 
	C361.612823,232.503723 364.570587,230.330231 366.099976,228.235855 
	C367.018463,226.978104 366.294983,223.500916 365.090912,221.996353 
	C363.850128,220.445862 361.155914,219.392715 359.053589,219.315201 
	C350.904266,219.014725 342.733643,219.067535 334.581085,219.318314 
	C333.350922,219.356171 332.174500,221.142273 330.973236,222.119690 
	C331.290405,222.684967 331.607574,223.250229 331.924774,223.815491 
	C339.545715,223.815491 347.166656,223.815094 354.787598,223.815887 
	C356.119904,223.816025 357.541077,223.531982 358.759216,223.906372 
	C359.951691,224.272888 360.937256,225.312637 362.013672,226.056900 
	C360.899445,226.764297 359.794373,228.068756 358.669556,228.086014 
	C348.349091,228.244171 338.025208,228.179108 327.326172,228.179108 
	C327.326172,223.687439 327.326172,219.318146 327.326172,214.679398 
	C338.692596,214.679398 350.011932,214.158920 361.258209,214.841553 
	C370.508209,215.403015 374.019775,224.864563 368.456787,233.470123 
z"/>
<path fill="#0F4E91" opacity="1.000000" stroke="none" 
	d="
M445.331146,217.669174 
	C448.890015,221.835678 449.979523,226.218613 447.669983,230.888733 
	C445.264587,235.752640 440.992828,237.367722 435.675720,237.251892 
	C427.356567,237.070663 419.030182,237.221420 410.706879,237.242111 
	C410.380524,237.242920 410.054474,237.352737 409.377167,237.475327 
	C409.377167,241.618500 409.377167,245.836044 409.377167,250.079758 
	C413.155426,250.778015 413.155426,250.778015 413.705902,242.108734 
	C415.014526,242.043335 416.375977,241.975296 417.891602,241.899536 
	C417.891602,246.434311 417.891602,250.558884 417.891602,254.942932 
	C413.511993,254.942932 409.264465,254.942932 404.699738,254.942932 
	C404.699738,247.756012 404.699738,240.677094 404.699738,232.797195 
	C410.321228,232.797195 416.058136,232.797211 421.795013,232.797180 
	C426.622620,232.797150 431.451233,232.857513 436.277588,232.779907 
	C441.044067,232.703247 444.029572,230.145157 444.109375,226.249405 
	C444.192413,222.197830 441.463257,219.365479 436.683105,219.268814 
	C427.704315,219.087280 418.719208,219.216522 409.341370,219.216522 
	C409.250458,220.756714 409.169800,222.123611 409.070923,223.798782 
	C417.924286,223.798782 426.408051,223.682693 434.883118,223.902496 
	C436.467224,223.943573 438.016418,225.330841 439.581696,226.096878 
	C438.119659,226.798447 436.667908,228.081848 435.193970,228.107864 
	C425.078979,228.286392 414.959381,228.201599 404.669189,228.201599 
	C404.669189,223.480072 404.669189,219.246201 404.669189,214.741806 
	C416.376953,214.741806 427.810669,214.617096 439.236542,214.861679 
	C441.194702,214.903595 443.119202,216.520798 445.331146,217.669174 
z"/>
<path fill="#115092" opacity="1.000000" stroke="none" 
	d="
M236.772278,249.916656 
	C249.092651,252.173798 258.206207,244.918335 258.716400,232.641495 
	C258.957733,226.835022 258.757812,221.010223 258.757812,215.046600 
	C261.585602,214.049698 263.401184,213.901596 263.295135,217.643890 
	C263.148804,222.805069 263.353210,227.975830 263.225281,233.137970 
	C262.917664,245.549088 253.913498,254.801086 241.947388,255.130051 
	C229.763168,255.465042 220.232483,247.036819 219.320724,234.573090 
	C218.849243,228.127945 219.237823,221.619888 219.237823,214.788620 
	C223.708252,214.788620 227.927124,214.788620 232.679794,214.788620 
	C232.679794,220.662689 232.607788,226.283981 232.698914,231.902603 
	C232.801453,238.224670 236.165558,242.041641 241.347672,241.931030 
	C246.505081,241.820953 249.878799,237.864578 249.941788,231.717514 
	C249.998047,226.226822 249.953629,220.735092 249.953629,215.018066 
	C252.662964,214.062302 254.488434,213.890564 254.384903,217.640945 
	C254.237823,222.968811 254.489304,228.311371 254.236160,233.631729 
	C253.892563,240.852921 248.479507,246.078278 241.372665,246.430496 
	C234.834869,246.754517 229.093704,241.757889 228.297562,234.545181 
	C227.842911,230.426178 228.295807,226.211975 227.954025,222.072510 
	C227.850647,220.820374 226.454529,219.674973 225.171204,218.797607 
	C222.713699,235.584366 223.494797,245.195923 236.772278,249.916656 
z"/>
<path fill="#0E4D91" opacity="1.000000" stroke="none" 
	d="
M157.090973,219.298065 
	C157.088547,224.260239 157.154694,228.757996 157.070526,233.252945 
	C156.845490,245.269943 147.876556,254.604187 136.158661,255.094116 
	C124.156738,255.595932 114.293930,247.447968 113.248985,235.473114 
	C112.659470,228.717453 113.142700,221.868179 113.142700,214.755112 
	C117.455475,214.755112 121.554420,214.755112 126.349503,214.755112 
	C126.349503,220.162476 126.299828,225.600449 126.361900,231.037140 
	C126.441818,238.037384 129.816010,242.111053 135.267670,241.929901 
	C140.555496,241.754196 143.770859,237.731964 143.831650,231.131226 
	C143.877670,226.135574 143.852661,221.139297 143.874802,216.143372 
	C143.876221,215.820267 144.011017,215.497757 144.117798,215.023941 
	C147.034821,213.679825 148.270248,214.523224 148.178314,217.874786 
	C148.036743,223.033646 148.250656,228.202820 148.086365,233.360367 
	C147.851700,240.726517 142.247330,246.201157 134.977203,246.407150 
	C128.212631,246.598801 122.462349,241.152222 122.067848,233.834244 
	C121.817322,229.187103 122.021004,224.515472 122.021004,219.635056 
	C119.363815,218.574677 117.588463,218.448883 117.718559,222.152481 
	C117.847115,225.811905 117.645706,229.483124 117.781006,233.142075 
	C118.148560,243.081604 125.184265,250.328735 134.689789,250.685562 
	C143.834686,251.028839 151.667252,243.811676 152.317490,233.905350 
	C152.719620,227.778839 152.392044,221.604446 152.392044,215.378067 
	C156.879669,213.034668 157.337860,215.474533 157.090973,219.298065 
z"/>
<path fill="#0D4D90" opacity="1.000000" stroke="none" 
	d="
M482.970886,226.924484 
	C484.507874,224.340622 485.885773,222.086685 487.513519,219.424057 
	C494.348816,231.262009 500.961334,242.714066 508.268097,255.368469 
	C501.903870,253.998215 495.415863,258.360779 491.548492,252.693680 
	C488.821106,248.697052 482.857361,244.463425 487.030792,237.727493 
	C492.060150,241.712433 491.555817,250.179749 500.582855,251.301773 
	C495.920898,243.174911 491.828735,236.041351 487.439972,228.390701 
	C482.959473,236.137909 478.534515,243.342941 474.593292,250.803497 
	C472.789185,254.218643 470.694611,255.712143 466.813812,255.266769 
	C463.701935,254.909653 460.516418,255.194580 456.807800,255.194580 
	C457.290100,253.824341 457.492218,252.762924 458.001160,251.877991 
	C464.627533,240.355865 471.208649,228.805405 478.055939,217.415268 
	C479.036804,215.783676 481.356720,214.957062 483.056915,213.757904 
	C483.493805,214.258209 483.930695,214.758530 484.367584,215.258850 
	C477.751007,226.842224 471.134430,238.425613 464.517853,250.009003 
	C464.960754,250.490067 465.403656,250.971130 465.846527,251.452194 
	C467.573120,250.136063 469.843658,249.163361 470.929901,247.442917 
	C475.096619,240.843536 478.883301,234.004211 482.970886,226.924484 
z"/>
<path fill="#185596" opacity="1.000000" stroke="none" 
	d="
M394.906860,241.593811 
	C394.683563,246.172577 394.683563,246.172577 390.205139,245.719604 
	C390.205139,237.188797 390.205139,228.609619 390.205139,218.093155 
	C388.061707,219.816223 386.051086,220.668091 386.029663,221.567307 
	C385.801117,231.167999 385.887634,240.776184 385.887634,250.704193 
	C388.974823,250.704193 391.604034,250.704193 394.168976,250.704193 
	C395.166382,255.930649 394.661987,256.088074 381.428406,254.889709 
	C381.428406,241.607147 381.428406,228.290359 381.428406,214.688171 
	C385.826172,214.688171 390.068359,214.688171 394.906860,214.688171 
	C394.906860,223.648361 394.906860,232.396103 394.906860,241.593811 
z"/>
<path fill="#5C7287" opacity="1.000000" stroke="none" 
	d="
M279.154480,281.302856 
	C283.698730,281.387024 287.626923,281.821716 289.382568,286.455536 
	C291.182129,291.205261 288.678375,294.391083 285.293396,297.411560 
	C287.213562,300.972351 289.115814,304.499878 291.512146,308.943665 
	C284.588043,306.878082 286.922546,296.073517 277.608887,297.601562 
	C277.608887,301.232635 277.608887,304.744171 277.608887,308.255707 
	C277.140686,308.283447 276.672485,308.311188 276.204285,308.338898 
	C276.035858,307.223663 275.729309,306.109344 275.721649,304.992981 
	C275.676117,298.344177 275.738739,291.694519 275.677917,285.045990 
	C275.657806,282.845459 275.734802,280.935638 279.154480,281.302856 
M280.311951,295.307343 
	C285.893707,295.056335 288.401855,292.774323 287.760406,288.530518 
	C287.132629,284.377136 283.916534,282.805511 277.034698,284.081299 
	C277.814514,287.787628 278.599396,291.517975 280.311951,295.307343 
z"/>
<path fill="#556C81" opacity="1.000000" stroke="none" 
	d="
M339.410583,302.657104 
	C339.410156,304.844177 339.410156,306.581116 339.410156,308.318054 
	C338.955811,308.312592 338.501465,308.307159 338.047119,308.301697 
	C338.047119,299.570190 338.047119,290.838684 338.047119,281.717529 
	C342.525269,281.170288 347.174652,280.418365 350.414978,284.934265 
	C353.102234,288.679382 352.126556,292.099792 347.209473,297.645935 
	C349.073669,301.051666 350.951233,304.481842 352.828827,307.912048 
	C352.479248,308.187683 352.129669,308.463348 351.780121,308.738983 
	C350.882202,307.701630 349.843994,306.752686 349.120911,305.605194 
	C348.154144,304.070862 347.731110,302.096375 346.525879,300.835266 
	C345.128693,299.373352 343.136505,298.480011 341.402618,297.339874 
	C340.738770,298.962250 340.074890,300.584595 339.410583,302.657104 
M349.526031,288.017365 
	C347.825409,282.891235 344.059387,282.777405 339.756989,283.646912 
	C339.756989,287.662506 339.756989,291.322235 339.756989,294.918732 
	C347.397766,295.882996 348.732178,295.013031 349.526031,288.017365 
z"/>
<path fill="#50687E" opacity="1.000000" stroke="none" 
	d="
M256.856232,282.794891 
	C264.743744,279.339050 268.801697,281.856201 268.935974,289.911346 
	C269.005371,294.074829 269.080231,298.249634 268.856964,302.403442 
	C268.622040,306.773468 266.152527,309.026917 261.679779,308.898468 
	C257.283569,308.772217 254.614594,306.630829 254.863037,302.128662 
	C255.214188,295.765289 255.983734,289.424988 256.856232,282.794891 
M256.843536,295.480896 
	C256.868256,297.801270 256.341400,300.320618 257.084808,302.381805 
	C257.729279,304.168701 259.854004,306.674286 261.251068,306.628387 
	C263.107178,306.567413 266.270569,304.509583 266.457764,303.008636 
	C267.108490,297.791412 267.119720,292.394226 266.473877,287.176910 
	C266.281342,285.621674 263.190918,283.494598 261.324982,283.384796 
	C259.945343,283.303650 257.757660,285.831421 257.094696,287.626923 
	C256.337463,289.677704 256.870911,292.205048 256.843536,295.480896 
z"/>
<path fill="#60768A" opacity="1.000000" stroke="none" 
	d="
M366.820312,308.722565 
	C364.086121,308.722473 361.799225,308.722473 359.242310,308.722473 
	C359.242310,299.392487 359.242310,290.661865 359.242310,281.874756 
	C363.728271,281.874756 367.987000,281.874756 372.245728,281.874756 
	C372.279480,282.419464 372.313232,282.964172 372.347015,283.508881 
	C368.813507,283.754639 365.279968,284.000397 361.426483,284.268433 
	C361.426483,287.311157 361.426483,290.361389 361.426483,293.875458 
	C364.950623,293.875458 368.369965,293.875458 371.789307,293.875458 
	C371.824005,294.334167 371.858673,294.792908 371.893372,295.251617 
	C368.500519,295.506531 365.107697,295.761444 361.407166,296.039490 
	C361.407166,299.310394 361.407166,302.541382 361.407166,305.998230 
	C365.256256,306.225800 368.920197,306.442444 372.584137,306.659058 
	C372.601105,307.170074 372.618073,307.681061 372.635040,308.192078 
	C370.845886,308.368927 369.056732,308.545776 366.820312,308.722565 
z"/>
<path fill="#728597" opacity="1.000000" stroke="none" 
	d="
M241.129822,294.147949 
	C244.237137,294.174042 246.886505,294.174042 249.535858,294.174042 
	C249.535660,294.900574 249.535461,295.627075 249.535248,296.353607 
	C246.252274,296.603607 242.969299,296.853638 239.260071,297.136139 
	C239.042389,300.914978 238.823898,304.708038 238.605408,308.501099 
	C238.119385,308.548676 237.633362,308.596252 237.147339,308.643799 
	C236.858459,307.582977 236.331375,306.524811 236.319458,305.460876 
	C236.243332,298.664215 236.400421,291.863190 236.226929,285.070099 
	C236.147171,281.947784 237.388016,280.978699 240.332947,281.150238 
	C243.452728,281.331970 246.591309,281.191040 249.721695,281.191040 
	C249.749756,281.973755 249.777802,282.756470 249.805862,283.539185 
	C246.425308,283.802460 243.044754,284.065704 238.327255,284.433105 
	C239.140717,287.794586 239.906296,290.958221 241.129822,294.147949 
z"/>
<path fill="#546B80" opacity="1.000000" stroke="none" 
	d="
M206.995132,304.883453 
	C208.382431,305.633850 209.917526,307.186493 211.125565,306.963928 
	C213.476227,306.530884 216.688141,305.684875 217.652176,303.955627 
	C219.267334,301.058380 217.594467,298.262970 214.333725,296.798431 
	C212.522659,295.984955 210.729080,295.078033 209.066940,293.998688 
	C205.464584,291.659393 205.210129,288.260803 206.982132,284.827026 
	C208.841553,281.223846 212.150314,280.171844 215.871902,281.647522 
	C219.960968,283.268951 220.339111,286.605164 219.925415,290.096619 
	C219.469818,290.239716 219.014221,290.382843 218.558624,290.525970 
	C218.324539,289.402222 218.419632,288.021393 217.785797,287.209869 
	C216.578186,285.663788 215.106918,283.648010 213.456573,283.331421 
	C212.069885,283.065430 209.215027,284.674988 208.907837,285.921814 
	C208.453827,287.764465 209.112396,290.495667 210.345123,291.975586 
	C211.717880,293.623596 214.277832,294.270111 216.297638,295.394501 
	C219.419510,297.132477 221.072754,299.961609 220.000824,303.273743 
	C219.343353,305.305237 217.143616,308.230621 215.582489,308.264435 
	C212.954041,308.321411 210.282684,306.397583 207.321594,305.117004 
	C207.013824,304.927063 206.995132,304.883453 206.995132,304.883453 
z"/>
<path fill="#5C7287" opacity="1.000000" stroke="none" 
	d="
M405.720276,308.699219 
	C402.977570,308.699463 400.670807,308.699463 398.060974,308.699463 
	C396.950195,303.210754 399.575806,299.885742 403.079590,296.465485 
	C405.263153,294.333984 406.902924,291.201324 407.640381,288.233154 
	C407.973846,286.891113 405.517029,284.855804 404.326080,283.135010 
	C402.840424,284.581299 401.279755,285.961395 399.911530,287.511322 
	C399.458588,288.024384 399.501312,288.974945 399.317383,289.725464 
	C398.789886,289.672272 398.262421,289.619110 397.734924,289.565918 
	C398.147156,287.473724 397.955109,284.885132 399.147400,283.433716 
	C400.264038,282.074463 403.045624,281.068054 404.731720,281.461487 
	C406.622101,281.902496 409.096130,283.816956 409.577454,285.568237 
	C410.955658,290.582794 409.361694,294.900085 405.004669,298.284943 
	C402.744537,300.040741 401.158661,302.664520 398.445343,305.867523 
	C403.476837,306.214905 406.658600,306.434570 409.840363,306.654236 
	C409.864746,307.144867 409.889099,307.635498 409.913452,308.126129 
	C408.661041,308.317078 407.408661,308.508057 405.720276,308.699219 
z"/>
<path fill="#3D576F" opacity="1.000000" stroke="none" 
	d="
M320.681580,282.092834 
	C320.919403,291.059875 320.919403,299.679535 320.919403,308.299225 
	C320.352417,308.310211 319.785461,308.321198 319.218475,308.332184 
	C319.042145,304.388123 318.865814,300.444061 318.679260,296.271118 
	C315.551025,296.271118 312.623871,296.271118 309.043579,296.271118 
	C309.043579,300.226044 309.043579,304.253448 309.043579,308.280823 
	C308.591919,308.280334 308.140228,308.279816 307.688568,308.279297 
	C307.688568,299.441040 307.688568,290.602783 307.688568,281.764526 
	C307.985779,281.738953 308.282990,281.713379 308.580200,281.687805 
	C308.580200,285.586121 308.580200,289.484436 308.580200,293.684601 
	C312.345062,293.684601 315.384186,293.684601 318.914307,293.684601 
	C318.914307,290.566650 318.787262,287.606262 318.984467,284.667603 
	C319.051727,283.665436 319.933960,282.717926 320.681580,282.092834 
z"/>
<path fill="#5E7489" opacity="1.000000" stroke="none" 
	d="
M462.090424,281.384949 
	C462.716736,282.635956 463.430603,283.982513 463.101257,284.987152 
	C460.675018,292.388733 458.060608,299.729248 455.436432,307.064331 
	C455.207367,307.704651 454.483124,308.167816 452.872192,308.193298 
	C455.597717,300.387817 458.323212,292.582336 461.189148,284.374695 
	C457.621918,284.040527 454.400696,283.738800 451.179474,283.437073 
	C451.215149,282.732117 451.250793,282.027161 451.286469,281.322205 
	C454.755951,281.322205 458.225464,281.322205 462.090424,281.384949 
z"/>
<path fill="#5C7287" opacity="1.000000" stroke="none" 
	d="
M421.121765,285.769257 
	C421.821533,284.199097 422.521301,282.628937 423.221069,281.058807 
	C423.745209,281.214539 424.269318,281.370300 424.793427,281.526062 
	C424.793427,287.364380 424.793427,293.202728 424.793427,299.227539 
	C426.479279,299.694061 427.672638,300.024323 430.008972,300.670837 
	C427.947296,301.537109 426.779144,302.027954 425.416718,302.600433 
	C425.248260,304.406830 425.068451,306.334686 424.888672,308.262543 
	C424.492432,308.308624 424.096191,308.354675 423.699951,308.400726 
	C423.448029,306.491974 423.196136,304.583191 422.881805,302.201538 
	C420.264069,302.050079 417.533295,301.892090 413.689240,301.669708 
	C414.734253,299.120514 415.550903,297.128296 416.797852,295.279541 
	C416.971619,296.802734 416.715088,298.182465 416.428680,299.722900 
	C418.602051,299.722900 420.645996,299.722900 423.212860,299.722900 
	C423.212860,295.645386 423.319855,291.752991 423.118408,287.876617 
	C423.080200,287.141571 421.818787,286.470093 421.121765,285.769257 
z"/>
<path fill="#526A7F" opacity="1.000000" stroke="none" 
	d="
M197.866211,284.959961 
	C198.660828,283.514313 199.343735,282.418762 200.026627,281.323242 
	C200.143005,281.448029 200.259369,281.572815 200.375748,281.697571 
	C198.121246,290.460968 195.866730,299.224365 193.557007,308.202362 
	C193.217056,303.878113 193.447098,299.227966 192.348358,294.916443 
	C191.203690,290.424652 188.777100,286.259552 186.910995,281.951599 
	C187.424759,281.700073 187.938522,281.448547 188.452286,281.197052 
	C190.287613,284.961304 192.122955,288.725555 194.283203,293.156219 
	C195.652847,290.060425 196.703674,287.685242 197.866211,284.959961 
z"/>
<path fill="#62778B" opacity="1.000000" stroke="none" 
	d="
M174.025269,291.991394 
	C173.635284,293.980408 173.245270,295.969421 172.769363,298.396606 
	C174.809494,298.497345 176.354782,298.573608 178.485428,298.664673 
	C179.228287,298.371613 179.385788,298.063843 179.543304,297.756073 
	C179.372894,296.757568 179.202484,295.759064 179.284668,294.317627 
	C179.705872,293.798767 179.874466,293.722900 180.043045,293.647003 
	C181.512863,298.446167 182.982681,303.245300 184.767410,309.072662 
	C180.071777,306.857513 182.884003,300.399658 176.358032,300.419556 
	C169.820328,300.439484 171.692123,306.026886 169.342239,308.658691 
	C168.945023,308.494080 168.547791,308.329437 168.150574,308.164825 
	C169.443375,303.093811 170.736176,298.022797 172.373550,292.465393 
	C173.153839,291.983154 173.589554,291.987274 174.025269,291.991394 
z"/>
<path fill="#5D7387" opacity="1.000000" stroke="none" 
	d="
M125.800018,304.767578 
	C125.799263,296.756989 125.799263,289.220215 125.799263,281.683411 
	C126.383545,281.660889 126.967827,281.638336 127.552109,281.615814 
	C127.552109,289.669617 127.552109,297.723450 127.552109,305.957336 
	C131.271088,306.224640 134.094879,306.427612 137.915817,306.702271 
	C132.042419,310.195953 126.616158,309.160950 125.800018,304.767578 
z"/>
<path fill="#3D576F" opacity="1.000000" stroke="none" 
	d="
M330.225952,297.922150 
	C330.225891,301.728333 330.225891,305.052032 330.225891,308.375763 
	C329.669556,308.365417 329.113220,308.355103 328.556885,308.344788 
	C328.556885,299.461884 328.556885,290.579010 328.556885,281.696136 
	C329.113281,281.667511 329.669647,281.638916 330.226044,281.610291 
	C330.226044,286.886780 330.226044,292.163239 330.225952,297.922150 
z"/>
<path fill="#5B7186" opacity="1.000000" stroke="none" 
	d="
M108.958099,295.016266 
	C109.209518,298.839722 109.209518,298.839722 115.069229,298.435944 
	C115.069229,297.159271 115.069229,295.853088 115.069229,294.546906 
	C115.513062,294.450073 115.956894,294.353241 116.400734,294.256378 
	C117.684845,298.826630 118.968964,303.396881 120.570663,309.097412 
	C116.119537,306.689911 118.673103,300.118347 111.996635,300.364288 
	C105.944946,300.587219 107.317131,305.741394 103.979713,307.734985 
	C105.153557,303.608673 106.327400,299.482361 107.974045,295.151245 
	C108.617256,294.969727 108.787682,294.993011 108.958099,295.016266 
z"/>
<path fill="#596F84" opacity="1.000000" stroke="none" 
	d="
M146.473648,302.842072 
	C147.305649,300.170380 148.137650,297.498718 149.452774,294.443420 
	C150.180481,294.059814 150.425049,294.059814 150.669632,294.059784 
	C149.732819,298.836029 148.795990,303.612305 147.859177,308.388550 
	C147.263977,308.421204 146.668777,308.453827 146.073578,308.486481 
	C144.002167,299.607056 141.930756,290.727600 139.859344,281.848175 
	C140.475021,281.688263 141.090698,281.528351 141.706360,281.368439 
	C143.142761,287.964722 144.579178,294.561035 146.019379,301.703247 
	C146.096222,302.502319 146.246384,302.699951 146.473648,302.842072 
M146.436127,304.488434 
	C146.436127,304.488434 146.511902,304.449860 146.436127,304.488434 
z"/>
<path fill="#5B7186" opacity="1.000000" stroke="none" 
	d="
M435.994171,306.096008 
	C438.459991,297.627380 440.865448,289.492371 443.270905,281.357330 
	C443.851166,281.534088 444.431396,281.710846 445.011658,281.887573 
	C442.444641,290.751068 439.877655,299.614563 437.310638,308.478058 
	C436.955688,308.451843 436.600708,308.425598 436.245758,308.399384 
	C436.141785,307.742767 436.037811,307.086182 435.994171,306.096008 
z"/>
<path fill="#F2F4F7" opacity="1.000000" stroke="none" 
	d="
M420.899658,286.065613 
	C421.818787,286.470093 423.080200,287.141571 423.118408,287.876617 
	C423.319855,291.752991 423.212860,295.645386 423.212860,299.722900 
	C420.645996,299.722900 418.602051,299.722900 416.428680,299.722900 
	C416.715088,298.182465 416.971619,296.802734 417.126190,295.126770 
	C418.242004,292.007690 419.459778,289.184845 420.899658,286.065613 
z"/>
<path fill="#5C7287" opacity="1.000000" stroke="none" 
	d="
M159.234985,302.040894 
	C160.658630,295.176056 162.082260,288.311218 163.505875,281.446381 
	C164.144989,281.574799 164.784103,281.703217 165.423218,281.831604 
	C163.861893,288.842834 162.300583,295.854034 160.384552,302.933899 
	C159.764893,302.681976 159.499939,302.361450 159.234985,302.040894 
z"/>
<path fill="#596F84" opacity="1.000000" stroke="none" 
	d="
M158.999802,302.252747 
	C159.499939,302.361450 159.764893,302.681976 160.181717,303.276428 
	C159.985260,305.212982 159.636932,306.875641 159.288605,308.538269 
	C158.776733,308.555634 158.264862,308.572998 157.752991,308.590363 
	C156.840042,304.822784 155.927078,301.055176 155.014130,297.287567 
	C155.426376,297.134613 155.838623,296.981628 156.250885,296.828674 
	C157.088791,298.707306 157.926712,300.585968 158.999802,302.252747 
z"/>
<path fill="#E8EBF0" opacity="1.000000" stroke="none" 
	d="
M177.373016,282.403046 
	C176.942520,283.889313 176.317947,285.160828 175.693390,286.432343 
	C175.158798,285.755280 174.624207,285.078247 174.089600,284.401184 
	C175.119370,283.663544 176.149155,282.925903 177.373016,282.403046 
z"/>
<path fill="#E8EBF0" opacity="1.000000" stroke="none" 
	d="
M113.645828,283.541718 
	C112.814232,284.382294 112.014839,284.933472 111.215446,285.484650 
	C111.087448,284.465790 110.959450,283.446930 110.831451,282.428070 
	C111.780312,282.702820 112.729164,282.977570 113.645828,283.541718 
z"/>
<path fill="#E8EBF0" opacity="1.000000" stroke="none" 
	d="
M174.238495,291.793945 
	C173.589554,291.987274 173.153839,291.983154 172.404022,292.084412 
	C172.746078,291.366730 173.402222,290.543701 174.058380,289.720703 
	C174.189499,290.345947 174.320602,290.971222 174.238495,291.793945 
z"/>
<path fill="#667B8F" opacity="1.000000" stroke="none" 
	d="
M150.739777,293.740845 
	C150.425049,294.059814 150.180481,294.059814 149.569443,294.042480 
	C149.743393,293.212158 150.283798,292.399170 150.908859,291.287659 
	C150.993515,290.989075 151.014221,290.998505 151.014221,290.998505 
	C150.946121,291.806305 150.878021,292.614105 150.739777,293.740845 
z"/>
<path fill="#E8EBF0" opacity="1.000000" stroke="none" 
	d="
M109.195023,294.841797 
	C108.787682,294.993011 108.617256,294.969727 108.206551,294.852386 
	C108.448051,294.063110 108.929840,293.367828 109.411629,292.672577 
	C109.418396,293.337494 109.425163,294.002380 109.195023,294.841797 
z"/>
<path fill="#E8EBF0" opacity="1.000000" stroke="none" 
	d="
M177.628876,288.515442 
	C178.051788,288.623047 178.308746,288.883881 178.546005,289.161591 
	C178.552078,289.168701 178.253021,289.458313 178.245865,289.451782 
	C177.973083,289.203522 177.717865,288.935944 177.628876,288.515442 
z"/>
<path fill="#E8EBF0" opacity="1.000000" stroke="none" 
	d="
M179.994232,293.383606 
	C179.874466,293.722900 179.705872,293.798767 179.266968,293.936768 
	C178.857452,293.505188 178.718216,293.011505 178.578979,292.517822 
	C179.034470,292.718628 179.489960,292.919434 179.994232,293.383606 
z"/>
<path fill="#E8EBF0" opacity="1.000000" stroke="none" 
	d="
M113.491379,289.898438 
	C113.823929,289.764130 114.155746,289.837067 114.487564,289.910004 
	C114.155266,289.975220 113.822952,290.040466 113.491379,289.898438 
z"/>
<path fill="#E8EBF0" opacity="1.000000" stroke="none" 
	d="
M110.241592,289.703796 
	C110.338669,289.998444 110.242599,290.317474 110.146530,290.636505 
	C110.113838,290.333710 110.081146,290.030945 110.241592,289.703796 
z"/>
<path fill="#E8EBF0" opacity="1.000000" stroke="none" 
	d="
M109.778526,287.582977 
	C109.832588,287.405975 109.957199,287.346527 110.081818,287.287109 
	C110.004234,287.424927 109.926651,287.562744 109.778526,287.582977 
z"/>
<path fill="#667B8F" opacity="1.000000" stroke="none" 
	d="
M150.999634,290.971558 
	C151.005768,290.954010 151.228455,290.898834 151.228455,290.898834 
	C151.228455,290.898834 150.952621,290.838074 150.983429,290.918274 
	C151.014221,290.998505 150.993515,290.989075 150.999634,290.971558 
z"/>
<path fill="#667B8F" opacity="1.000000" stroke="none" 
	d="
M146.361725,302.623535 
	C146.246384,302.699951 146.096222,302.502319 146.014984,302.113770 
	C146.006760,301.978394 146.249817,302.405029 146.361725,302.623535 
z"/>
<path fill="#546B80" opacity="1.000000" stroke="none" 
	d="
M207.007507,304.944885 
	C207.001205,304.962738 206.876770,304.755096 206.876770,304.755096 
	C206.876770,304.755096 206.883377,305.038361 206.939255,304.960907 
	C206.995132,304.883453 207.013824,304.927063 207.007507,304.944885 
z"/>
<path fill="#F5F7F9" opacity="1.000000" stroke="none" 
	d="
M279.848083,295.277832 
	C278.599396,291.517975 277.814514,287.787628 277.034698,284.081299 
	C283.916534,282.805511 287.132629,284.377136 287.760406,288.530518 
	C288.401855,292.774323 285.893707,295.056335 279.848083,295.277832 
z"/>
<path fill="#F0F3F6" opacity="1.000000" stroke="none" 
	d="
M349.604675,288.394348 
	C348.732178,295.013031 347.397766,295.882996 339.756989,294.918732 
	C339.756989,291.322235 339.756989,287.662506 339.756989,283.646912 
	C344.059387,282.777405 347.825409,282.891235 349.604675,288.394348 
z"/>
<path fill="#F7F9FB" opacity="1.000000" stroke="none" 
	d="
M256.843506,295.003113 
	C256.870911,292.205048 256.337463,289.677704 257.094696,287.626923 
	C257.757660,285.831421 259.945343,283.303650 261.324982,283.384796 
	C263.190918,283.494598 266.281342,285.621674 266.473877,287.176910 
	C267.119720,292.394226 267.108490,297.791412 266.457764,303.008636 
	C266.270569,304.509583 263.107178,306.567413 261.251068,306.628387 
	C259.854004,306.674286 257.729279,304.168701 257.084808,302.381805 
	C256.341400,300.320618 256.868256,297.801270 256.843506,295.003113 
z"/>
<path fill="#E8EBF0" opacity="1.000000" stroke="none" 
	d="
M179.316086,297.922516 
	C179.385788,298.063843 179.228287,298.371613 178.913727,298.611633 
	C178.867401,298.392181 178.978149,298.240570 179.316086,297.922516 
z"/>
<path fill="#667B8F" opacity="1.000000" stroke="none" 
	d="
M146.474014,304.469147 
	C146.511902,304.449860 146.436127,304.488434 146.474014,304.469147 
z"/>
</svg>